<svg width="137" height="103" viewBox="0 0 137 103" fill="none" xmlns="http://www.w3.org/2000/svg">
<path d="M99.6891 0.0233154C95.7854 0.0233154 92.457 1.42044 89.7038 4.17359C86.9507 6.92673 85.5535 10.2552 85.5946 14.1589C85.5535 18.0215 86.9507 21.35 89.7038 24.1031C92.457 26.8563 95.7854 28.2534 99.6891 28.2534C103.552 28.2534 106.88 26.8563 109.674 24.1031C112.428 21.35 113.784 18.0215 113.784 14.1589C113.784 10.2552 112.428 6.92673 109.674 4.17359C106.88 1.42044 103.552 0.0233154 99.6891 0.0233154ZM99.648 7.83076C101.415 7.83076 102.894 8.44713 104.127 9.72098C105.36 10.9537 105.976 12.4741 105.976 14.2C105.976 15.9669 105.36 17.4462 104.127 18.679C102.894 19.9117 101.415 20.5281 99.648 20.5281C97.8811 20.5281 96.4018 19.9117 95.1279 18.679C93.8952 17.4462 93.2788 15.9669 93.2788 14.2C93.2788 12.4741 93.8952 10.9537 95.1279 9.72098C96.4018 8.44713 97.8811 7.83076 99.648 7.83076Z" fill="#ED6D56"/>
<path d="M91.0187 42.5122C93.361 40.17 96.1963 38.9784 99.5247 38.9784C102.853 38.9784 105.689 40.17 108.031 42.5122C110.414 44.8956 111.565 47.7309 111.565 51.0593V66.8386H119.454V50.4019C119.454 44.8956 117.482 40.2111 113.578 36.3074C109.716 32.4448 105.031 30.4724 99.5247 30.4724C94.0185 30.4724 89.2929 32.4448 85.4303 36.3074C84.7317 37.0059 84.0742 37.7456 83.54 38.4853C83.6222 38.6085 83.7455 38.7318 83.8277 38.8962C86.1699 42.1013 87.4027 45.8407 87.5259 49.991C87.7314 47.1145 88.882 44.6079 91.0187 42.5122Z" fill="#ED6D56"/>
<path d="M53.4194 36.3074C52.7209 37.0059 52.1045 37.7045 51.5703 38.4442C51.6525 38.6085 51.7758 38.7318 51.899 38.8962C54.2413 42.1013 55.433 45.7996 55.5151 49.991C55.7206 47.1145 56.9123 44.6079 59.0079 42.5122C61.3502 40.17 64.1855 38.9784 67.5139 38.9784C70.8424 38.9784 73.6777 40.17 76.061 42.5122C78.1567 44.6079 79.3073 47.1145 79.5127 49.991H79.5949C79.6771 45.7996 80.8688 42.1013 83.211 38.8962C83.3343 38.7318 83.4165 38.6085 83.5397 38.4853C82.9644 37.7456 82.307 37.0059 81.6084 36.3074C77.7458 32.4448 73.0202 30.4724 67.5139 30.4724C62.0076 30.4724 57.3232 32.4448 53.4194 36.3074Z" fill="#8ABFE9"/>
<path d="M51.2417 38.8962C51.3239 38.7318 51.4472 38.6085 51.5704 38.4442C50.9952 37.7045 50.3377 37.0059 49.6802 36.3074C45.7765 32.4448 41.0921 30.4724 35.5858 30.4724C30.0795 30.4724 25.3539 32.4448 21.4913 36.3074C17.5876 40.2111 15.6562 44.8956 15.6562 50.4019V66.8386H23.5459V51.0593C23.5459 47.7309 24.6964 44.8956 27.0798 42.5122C29.3809 40.17 32.2573 38.9784 35.5858 38.9784C38.9142 38.9784 41.7495 40.17 44.0917 42.5122C46.1874 44.6079 47.3791 47.1145 47.5845 49.991H47.6257C47.6667 45.7996 48.8995 42.1013 51.2417 38.8962Z" fill="#FFD000"/>
<path d="M51.5708 38.4442C51.4475 38.6085 51.3242 38.7318 51.2421 38.8962C48.8998 42.1013 47.6671 45.7996 47.626 49.9909V66.8386H55.4745L55.5156 50.032C55.5156 49.9909 55.5156 49.9909 55.5156 49.9909C55.4334 45.7996 54.2417 42.1013 51.8995 38.8962C51.7762 38.7318 51.653 38.6085 51.5708 38.4442Z" fill="#46DFC8"/>
<path d="M83.8272 38.8962C83.7451 38.7318 83.6218 38.6086 83.5396 38.4853C83.4163 38.6086 83.3341 38.7318 83.2109 38.8962C80.8686 42.1014 79.677 45.7996 79.5948 49.991C79.5948 50.1143 79.5948 50.2375 79.5537 50.3608V66.8386H87.4844L87.5255 49.991C87.4022 45.8407 86.1695 42.1014 83.8272 38.8962Z" fill="#83489B"/>
<path d="M61.7201 19.8707V8.4472H80.7046V0.845215H54.1182V27.4727H80.7046V19.8707H61.7201Z" fill="#8ABFE9"/>
<path d="M48.8999 27.4727V0.845215H22.2725V27.4727H48.8999ZM29.9155 19.8707V8.4472H41.2979V19.8707H29.9155Z" fill="#FFD000"/>
<path d="M120.851 74.5639H117.44V81.5084H135.233V78.5909H120.851V74.5639Z" fill="#ED6D56"/>
<path d="M113.784 74.7693H110.455V96.5069H113.784V74.7693Z" fill="#ED6D56"/>
<path d="M105.852 75.0159V82.207H102.976V85.3711H105.852V95.8906H109.139V75.0159H105.852Z" fill="#ED6D56"/>
<path d="M115.55 83.3575V86.2751H137V83.3575H115.55Z" fill="#ED6D56"/>
<path d="M104.373 80.2346V77.2349H100.839V74.5639H97.4283V77.2349H93.5657V80.2346H97.4283V82.7001C97.4283 84.015 97.1407 85.1245 96.5654 86.0696C95.9079 87.0969 95.2094 88.0831 94.5108 89.0693C93.8533 90.0144 93.1137 91.0006 92.374 91.9457L94.7985 93.8359C95.6614 92.7675 96.401 91.8224 97.0996 90.8773C97.7982 89.9733 98.4556 88.9871 99.1131 88.0009C99.7706 88.946 100.428 89.85 101.044 90.6719C101.702 91.5348 102.442 92.3977 103.263 93.3839L105.441 91.0828C104.702 90.1788 104.044 89.3158 103.428 88.5351C102.811 87.7133 102.236 86.8503 101.661 85.9463C101.414 85.4532 101.168 84.9601 101.044 84.4259C100.88 83.8917 100.839 83.2754 100.839 82.6179V80.2346H104.373Z" fill="#ED6D56"/>
<path d="M119.824 96.1371C120.111 97.3288 120.687 98.3561 121.591 99.2601C122.947 100.575 124.549 101.274 126.439 101.274C128.33 101.274 129.973 100.575 131.288 99.2601C132.274 98.2739 132.891 97.2055 133.178 95.9728C133.261 95.4797 133.302 94.9455 133.343 94.4113C133.302 92.5211 132.644 90.8774 131.288 89.5624C130.507 88.7817 129.645 88.2064 128.658 87.8777C127.96 87.6722 127.22 87.549 126.439 87.549C125.659 87.549 124.919 87.6722 124.262 87.8777C123.275 88.2064 122.412 88.7817 121.591 89.5624C120.276 90.8774 119.618 92.5211 119.618 94.4113C119.618 95.0277 119.659 95.6029 119.824 96.1371ZM127.056 90.7952C127.837 90.9185 128.494 91.2472 129.028 91.8225C129.521 92.3156 129.85 92.8909 130.014 93.5073C130.097 93.7949 130.138 94.1236 130.138 94.4524C130.138 95.1509 129.932 95.8084 129.562 96.4248C129.439 96.6302 129.234 96.8768 129.028 97.0822C128.33 97.7808 127.467 98.1506 126.439 98.1506C125.412 98.1506 124.549 97.7808 123.81 97.0822C123.604 96.8768 123.44 96.6302 123.275 96.4248C122.905 95.8084 122.741 95.1509 122.741 94.4524C122.741 94.1236 122.782 93.7949 122.823 93.5073C122.988 92.8909 123.316 92.3156 123.81 91.8225C124.385 91.2472 125.042 90.9185 125.823 90.7952C126.028 90.7541 126.234 90.7541 126.439 90.7541C126.645 90.7541 126.85 90.7541 127.056 90.7952Z" fill="#ED6D56"/>
<path d="M91.142 96.5069V74.7693H87.7725V96.5069H91.142Z" fill="#ED6D56"/>
<path d="M18.5735 90.7129V75.1802H3.0408V90.7129H8.9991V95.1508H0V98.1505H21.4499V95.1508H12.4508V90.7129H18.5735ZM15.5738 78.1388V87.7543H5.9994V78.1388H15.5738Z" fill="#FFD000"/>
<path d="M22.5186 93.0963V96.096H31.5177V102.506H34.9694V96.096H43.9685V93.0963H22.5186Z" fill="#8ABFE9"/>
<path d="M53.0908 75.1802C51.2005 75.1802 49.598 75.8377 48.283 77.1526C46.927 78.5087 46.2695 80.1112 46.2695 82.0426C46.2695 83.8917 46.927 85.5354 48.283 86.8503C49.598 88.2063 51.2005 88.9049 53.0908 88.9049C54.981 88.9049 56.6247 88.2063 57.9396 86.8503C59.2956 85.5354 59.9531 83.8917 59.9942 82.0426C59.9531 80.1112 59.2956 78.5087 57.9396 77.1526C56.6247 75.8377 54.981 75.1802 53.0908 75.1802ZM53.0908 78.3443C54.1181 78.3443 54.981 78.7141 55.6795 79.4538C56.4192 80.1523 56.789 81.0153 56.789 82.0426C56.789 83.0699 56.4192 83.9328 55.6795 84.6724C54.981 85.4121 54.1181 85.7408 53.0908 85.7408C52.0635 85.7408 51.2005 85.4121 50.4609 84.6724C49.7623 83.9328 49.3925 83.0699 49.3925 82.0426C49.3925 81.0153 49.7623 80.1523 50.4609 79.4538C51.2005 78.7141 52.0635 78.3443 53.0908 78.3443Z" fill="#46DFC8"/>
<path d="M40.9682 78.1388V75.1802H25.4355V90.7129H40.9682V87.7543H28.5585V78.1388H40.9682Z" fill="#8ABFE9"/>
<path d="M45.8994 90.2199V93.2196H61.0212V90.2199H45.8994Z" fill="#46DFC8"/>
<path d="M86.2106 75.0159H82.9233V79.6593H79.636C79.5127 79.5771 79.4305 79.4538 79.3483 79.3717C79.2662 79.2484 79.184 79.1662 79.1018 79.084C77.7457 77.7691 76.1432 77.0705 74.253 77.1116C73.2257 77.0705 72.2805 77.276 71.4176 77.6869C70.678 78.0156 70.0205 78.4676 69.4041 79.084C68.0892 80.44 67.3906 82.0426 67.3906 83.9739C67.3906 85.8231 68.0892 87.4667 69.4041 88.7817C69.8972 89.3159 70.4314 89.7268 71.0067 90.0144C71.9929 90.5486 73.0613 90.7952 74.253 90.7952C74.7871 90.7952 75.3213 90.7541 75.8144 90.6308C76.2664 90.5486 76.7595 90.3843 77.1705 90.1788C77.869 89.8501 78.4854 89.3981 79.1018 88.7817C79.184 88.6995 79.2662 88.6173 79.3483 88.5351H82.9233V95.8906H86.2106V75.0159ZM81.0331 82.8234H82.9233V85.3711H80.992C81.0742 84.919 81.1153 84.4259 81.1153 83.9739C81.1153 83.563 81.0742 83.1932 81.0331 82.8234ZM74.253 80.2757C75.2392 80.2757 76.1021 80.6455 76.8417 81.3852C77.2937 81.8372 77.6225 82.3714 77.7868 82.9877C77.869 83.2754 77.9101 83.6452 77.9512 83.9739C77.9101 84.3438 77.869 84.6725 77.7868 85.0012C77.6225 85.5765 77.2937 86.1518 76.8417 86.6038C76.1021 87.3435 75.2392 87.6722 74.253 87.6722C74.1708 87.6722 74.1297 87.6722 74.0886 87.6722C73.1435 87.6722 72.2805 87.3024 71.6231 86.6038C71.2122 86.1929 70.9245 85.7409 70.7191 85.2478C70.5958 84.878 70.5136 84.4259 70.5136 83.9739C70.5136 83.5219 70.5958 83.111 70.7191 82.7001C70.9245 82.207 71.2122 81.755 71.6231 81.3852C72.3216 80.6455 73.1435 80.3168 74.1708 80.2757C74.1708 80.2757 74.2119 80.2757 74.253 80.2757Z" fill="#ED6D56"/>
<path d="M65.4594 74.8926H62.0488V96.0138H65.4594V74.8926Z" fill="#46DFC8"/>
</svg>
